<?xml version="1.0" standalone="no"?>
<!DOCTYPE svg PUBLIC "-//W3C//DTD SVG 20010904//EN"
 "http://www.w3.org/TR/2001/REC-SVG-20010904/DTD/svg10.dtd">
<svg version="1.0" xmlns="http://www.w3.org/2000/svg"
 width="640.000000pt" height="640.000000pt" viewBox="0 0 640.000000 640.000000"
 preserveAspectRatio="xMidYMid meet">

<g transform="translate(0.000000,640.000000) scale(0.100000,-0.100000)"
fill="rgb(44, 44, 218)" stroke="none">
<path d="M2909 5135 c-656 -90 -1220 -503 -1506 -1101 -58 -123 -54 -130 8
-14 129 239 309 444 530 603 110 79 334 192 468 236 292 96 609 113 916 47
426 -91 800 -339 1061 -701 73 -102 190 -330 230 -450 70 -210 103 -483 84
-693 -45 -500 -271 -927 -651 -1232 -574 -460 -1373 -511 -2006 -129 -234 141
-464 376 -594 604 -24 41 -45 73 -47 70 -8 -7 89 -178 158 -278 197 -287 448
-504 758 -653 542 -262 1184 -259 1717 8 743 373 1167 1156 1070 1979 -105
896 -819 1606 -1720 1709 -121 13 -358 11 -476 -5z"/>
<path d="M2970 4687 l0 -44 113 -6 c498 -29 950 -332 1179 -792 169 -338 192
-746 61 -1100 -169 -456 -572 -805 -1048 -906 -193 -41 -435 -35 -634 16 -438
111 -814 455 -974 890 -47 128 -49 119 22 112 33 -4 77 -14 97 -22 21 -8 39
-13 42 -11 2 3 -67 142 -154 310 -87 168 -160 303 -164 300 -6 -6 -228 -648
-225 -651 1 -2 24 8 51 21 54 26 147 56 175 56 12 0 24 -22 44 -87 116 -376
397 -704 760 -885 438 -219 904 -222 1340 -9 157 77 277 163 400 286 215 216
348 466 416 786 32 149 32 389 1 546 -115 573 -509 1008 -1064 1173 -113 34
-276 60 -372 60 l-66 0 0 -43z"/>
<path d="M2546 4129 c-177 -26 -293 -146 -322 -335 l-6 -41 73 -7 c41 -4 95
-9 120 -13 l46 -5 6 41 c7 53 36 110 68 134 38 28 110 33 164 13 63 -25 90
-71 90 -156 0 -105 -22 -138 -247 -367 -250 -256 -312 -348 -343 -515 l-7 -38
421 0 421 0 0 115 0 115 -235 0 c-168 0 -235 3 -235 11 0 7 73 86 163 178 189
192 216 225 258 316 123 262 1 511 -271 554 -73 12 -81 12 -164 0z"/>
<path d="M3454 3858 c-103 -156 -225 -340 -271 -410 l-83 -126 0 -111 0 -111
255 0 255 0 0 -130 0 -130 115 0 115 0 0 130 0 130 75 0 75 0 0 110 0 110 -75
0 -75 0 0 410 0 410 -100 0 -100 0 -186 -282z m156 -323 l0 -215 -140 0 c-77
0 -140 3 -140 6 0 7 271 424 276 424 2 0 4 -97 4 -215z"/>
<path d="M2649 2671 c-51 -16 -71 -33 -90 -74 -37 -83 -16 -201 44 -240 60
-39 148 -33 202 14 75 67 65 229 -18 284 -29 18 -103 27 -138 16z m91 -96 c20
-21 22 -32 18 -81 -5 -61 -23 -84 -63 -84 -38 0 -59 35 -59 97 0 46 4 59 23
74 31 25 53 24 81 -6z"/>
<path d="M3654 2666 c-98 -43 -78 -156 33 -186 58 -16 73 -26 73 -52 0 -37
-73 -36 -85 2 -9 28 -95 30 -95 3 0 -36 38 -81 77 -92 110 -31 195 15 197 105
1 38 -3 50 -27 70 -16 13 -55 32 -88 41 -45 12 -59 21 -59 35 0 27 53 24 72
-3 12 -19 20 -20 56 -14 l41 7 -12 31 c-23 58 -112 83 -183 53z"/>
<path d="M2190 2505 l0 -165 50 0 50 0 0 65 0 65 50 0 50 0 0 -65 0 -65 50 0
50 0 0 165 0 165 -50 0 -49 0 -3 -57 -3 -57 -45 -1 -45 0 -3 58 -3 57 -49 0
-50 0 0 -165z"/>
<path d="M2910 2548 c0 -133 7 -158 52 -191 38 -29 123 -33 168 -10 56 29 70
69 70 206 l0 117 -44 0 -44 0 -3 -113 c-4 -122 -14 -147 -54 -147 -45 0 -55
27 -55 148 l0 112 -45 0 -45 0 0 -122z"/>
<path d="M3260 2505 l0 -165 50 0 50 0 0 65 c0 51 3 65 15 65 9 0 29 -28 47
-65 l32 -65 53 0 c29 0 53 2 53 5 0 11 -60 124 -69 129 -5 4 4 19 20 35 21 21
29 39 29 64 0 81 -29 97 -175 97 l-105 0 0 -165z m178 68 c-3 -24 -8 -28 -40
-31 -36 -3 -38 -2 -38 27 0 30 2 31 41 31 38 0 40 -1 37 -27z"/>
<path d="M1380 2411 c0 -6 4 -13 10 -16 6 -3 7 1 4 9 -7 18 -14 21 -14 7z"/>
</g>
</svg>
