<!-- Generated by IcoMoon.io -->
<svg version="1.1" xmlns="http://www.w3.org/2000/svg" width="768" height="768" viewBox="0 0 768 768">
<title></title>
<g id="icomoon-ignore">
</g>
<path fill="rgb(44, 44, 218)" d="M585.376 137.376l-448 448c-12.512 12.512-12.512 32.768 0 45.248s32.768 12.512 45.248 0l448-448c12.512-12.512 12.512-32.768 0-45.248s-32.768-12.512-45.248 0zM320 208c0-30.912-12.576-58.976-32.8-79.2s-48.288-32.8-79.2-32.8-58.976 12.576-79.2 32.8-32.8 48.288-32.8 79.2 12.576 58.976 32.8 79.2 48.288 32.8 79.2 32.8 58.976-12.576 79.2-32.8 32.8-48.288 32.8-79.2zM256 208c0 13.248-5.344 25.216-14.048 33.952s-20.704 14.048-33.952 14.048-25.216-5.344-33.952-14.048-14.048-20.704-14.048-33.952 5.344-25.216 14.048-33.952 20.704-14.048 33.952-14.048 25.216 5.344 33.952 14.048 14.048 20.704 14.048 33.952zM672 560c0-30.912-12.576-58.976-32.8-79.2s-48.288-32.8-79.2-32.8-58.976 12.576-79.2 32.8-32.8 48.288-32.8 79.2 12.576 58.976 32.8 79.2 48.288 32.8 79.2 32.8 58.976-12.576 79.2-32.8 32.8-48.288 32.8-79.2zM608 560c0 13.248-5.344 25.216-14.048 33.952s-20.704 14.048-33.952 14.048-25.216-5.344-33.952-14.048-14.048-20.704-14.048-33.952 5.344-25.216 14.048-33.952 20.704-14.048 33.952-14.048 25.216 5.344 33.952 14.048 14.048 20.704 14.048 33.952z"></path>
</svg>
