<?xml version="1.0" standalone="no"?>
<!DOCTYPE svg PUBLIC "-//W3C//DTD SVG 20010904//EN"
 "http://www.w3.org/TR/2001/REC-SVG-20010904/DTD/svg10.dtd">
<svg version="1.0" xmlns="http://www.w3.org/2000/svg"
 width="920.000000pt" height="512.000000pt" viewBox="0 0 920.000000 512.000000"
 preserveAspectRatio="xMidYMid meet">

<g transform="translate(0.000000,512.000000) scale(0.100000,-0.100000)"
fill="rgb(44, 44, 218)" stroke="none">
<path d="M4165 4853 c-294 -26 -569 -101 -830 -228 -691 -336 -1152 -968
-1272 -1745 -24 -159 -24 -501 1 -655 144 -892 745 -1590 1606 -1864 245 -78
616 -118 855 -93 93 10 102 13 128 42 30 34 33 61 17 174 -17 113 -40 125
-220 116 -359 -17 -682 50 -999 210 -497 249 -873 717 -1010 1256 -45 175 -62
317 -62 494 1 404 114 772 343 1111 106 157 324 382 473 486 311 218 658 341
1020 361 709 40 1365 -284 1759 -868 78 -114 177 -319 226 -464 68 -200 92
-339 97 -571 3 -110 3 -198 0 -195 -2 3 -55 66 -117 140 -142 171 -152 180
-199 180 -42 0 -86 -27 -158 -98 -36 -35 -43 -48 -43 -82 0 -45 -14 -26 303
-405 283 -336 281 -335 333 -335 39 0 53 9 205 137 516 430 528 441 535 478 7
40 -11 77 -78 156 -50 59 -92 76 -140 56 -18 -8 -92 -65 -164 -126 -72 -61
-133 -111 -135 -111 -2 0 -5 75 -5 168 -1 191 -14 308 -50 472 -140 628 -514
1149 -1064 1480 -397 240 -911 362 -1355 323z"/>
<path d="M5313 3717 c-38 -35 -272 -268 -521 -517 l-454 -453 -323 323 c-266
266 -327 323 -350 323 -39 0 -157 -119 -157 -158 0 -23 68 -96 403 -431 317
-317 409 -404 429 -404 20 0 149 124 619 594 496 496 594 598 594 621 0 20
-17 43 -64 90 -90 89 -95 89 -176 12z"/>
<path d="M5147 1680 c-100 -25 -222 -119 -268 -204 -33 -62 -19 -88 66 -127
86 -39 108 -38 138 6 47 69 110 100 192 93 101 -8 130 -72 87 -186 -27 -71
-76 -138 -336 -461 -149 -185 -236 -302 -236 -316 0 -12 9 -30 21 -41 20 -18
41 -19 384 -19 434 0 405 -9 405 120 0 117 4 115 -203 115 -92 0 -167 3 -167
6 0 3 57 76 126 162 197 245 253 353 261 502 4 71 1 95 -16 141 -30 79 -88
141 -168 181 -58 28 -77 33 -157 35 -50 1 -108 -2 -129 -7z"/>
<path d="M6276 1638 c-13 -13 -160 -216 -326 -451 -261 -372 -301 -432 -298
-460 5 -54 22 -57 331 -57 l277 0 0 -99 c0 -129 2 -131 119 -131 114 0 116 2
116 130 l0 98 44 5 c61 7 71 24 71 122 0 95 -13 115 -73 115 l-36 0 -3 356 -3
356 -24 19 c-18 15 -39 19 -97 19 -62 0 -77 -3 -98 -22z m-24 -720 c-5 -5 -52
-7 -104 -6 l-95 3 101 143 101 143 3 -137 c1 -76 -1 -141 -6 -146z"/>
</g>
</svg>
