<!-- Generated by IcoMoon.io -->
<svg version="1.1" xmlns="http://www.w3.org/2000/svg" width="1024" height="1024" viewBox="0 0 1024 1024">
<title></title>
<g id="icomoon-ignore">
</g>
<path fill="rgb(44, 44, 218)" d="M488.066 403.379v0 0c7.534-0.591 15.15-0.892 22.837-0.892 7.592 0 15.116 0.294 22.561 0.871l150.038-371.357 29.621 11.968-146.989 363.809c43.266 8.403 83.074 26.492 117.076 51.919l148.592-367.778 29.719 12.007-152.524 377.509c55.371 52.486 89.906 126.736 89.906 209.053 0 159.058-128.942 288-288 288s-288-128.942-288-288c0-82.214 34.449-156.382 89.7-208.857l-152.603-377.705 29.67-11.987 148.663 367.955c33.976-25.468 73.766-43.602 117.021-52.054l-147.005-363.851 29.67-11.987 150.047 371.379zM510.903 946.486c141.385 0 256-114.615 256-256s-114.615-256-256-256c-141.385 0-256 114.615-256 256s114.615 256 256 256v0zM510.903 882.486v0c-106.039 0-192-85.961-192-192s85.961-192 192-192c106.039 0 192 85.961 192 192s-85.961 192-192 192zM510.903 850.486c88.366 0 160-71.634 160-160s-71.634-160-160-160c-88.366 0-160 71.634-160 160s71.634 160 160 160v0z"></path>
</svg>
