<?xml version="1.0" standalone="no"?>
<!DOCTYPE svg PUBLIC "-//W3C//DTD SVG 20010904//EN"
 "http://www.w3.org/TR/2001/REC-SVG-20010904/DTD/svg10.dtd">
<svg version="1.0" xmlns="http://www.w3.org/2000/svg"
 width="95.000000pt" height="78.000000pt" viewBox="0 0 95.000000 78.000000"
 preserveAspectRatio="xMidYMid meet">

<g transform="translate(0.000000,78.000000) scale(0.100000,-0.100000)"
fill="#000000" stroke="none">
<path fill="rgb(235, 229, 229)" d="M259 458 c-74 -123 -151 -251 -171 -286 l-37 -63 115 3 116 3 113
283 113 282 -58 0 -57 0 -134 -222z"/>
<path fill="rgb(235, 229, 229)" d="M717 643 c-21 -33 -303 -505 -314 -525 -2 -5 47 -8 110 -8 l113 0
107 268 c58 147 109 275 113 285 5 15 -1 17 -50 17 -54 0 -57 -1 -79 -37z"/>
</g>
</svg>
